<?xml version="1.0" encoding="UTF-8"?>
<svg id="Layer_1" data-name="Layer 1" xmlns="http://www.w3.org/2000/svg" viewBox="0 0 244.46 76.25">
  <defs>
    <style>
      .cls-1 {
        fill: #000;
        stroke-width: 0px;
      }
    </style>
  </defs>
  <path class="cls-1" d="M86.97,36.17c-5.99.88-11.98,1.77-17.97,2.65,1.02,7.99,2.27,15.94,3.75,23.86.35,1.89-2.54,2.69-2.9.8-1.5-8.04-2.76-16.11-3.8-24.22-15.1,2.23-30.19,4.45-45.28,6.68,1.31,9.47,2.63,18.94,3.94,28.42.26,1.89-2.63,2.7-2.9.79-.69-5.01-1.38-10.03-2.08-15.04-.63-4.58-1.27-9.15-1.9-13.73-5.32.78-10.63,1.56-15.95,2.35-1.89.28-2.7-2.61-.8-2.89,5.45-.8,10.89-1.61,16.34-2.41-1.66-11.96-3.31-23.91-4.97-35.87-.26-1.89,2.63-2.7,2.89-.8.7,5.02,1.39,10.04,2.09,15.05.98,7.06,1.95,14.12,2.93,21.18,15.1-2.23,30.21-4.46,45.32-6.69-1.4-11.58-2.33-23.21-2.79-34.86-.08-1.93,2.92-1.92,3,0,.45,11.51,1.36,23,2.74,34.43,5.85-.87,11.69-1.73,17.54-2.59,1.89-.28,2.7,2.61.8,2.89Z"/>
  <path class="cls-1" d="M121.12,32.02c-5.82-3.98-13.58-1.28-17.33,4.17-1.93,2.81-3.14,6.66-3.12,10.41-1.04.56-2.09,1.1-3.16,1.6-1.74.83-.22,3.42,1.52,2.59.66-.31,1.32-.64,1.97-.98.44,2.06,1.33,3.98,2.77,5.52,2.46,2.63,6.74,3.59,9.87,1.6,1.62-1.04.12-3.63-1.52-2.59-2.82,1.79-6.15-.25-7.43-2.95-.46-.97-.74-2.01-.88-3.09,6.54-3.71,12.49-8.42,17.61-13.93.69-.74.51-1.8-.3-2.35ZM103.81,44.82c.13-1.15.38-2.27.72-3.32.99-3.12,3.04-5.99,6.06-7.42,2.3-1.09,4.97-1.27,7.31-.37-4.21,4.29-8.95,8.02-14.09,11.11Z"/>
  <path class="cls-1" d="M144.67,9.27c-3.44,15.04-5.82,30.31-7.15,45.69-.17,1.92,2.83,1.91,3,0,1.31-15.11,3.66-30.11,7.04-44.89.43-1.88-2.46-2.68-2.89-.8h0Z"/>
  <path class="cls-1" d="M171.46,16.27c-3.42,12.93-7.42,25.71-11.98,38.28-.66,1.82,2.24,2.6,2.89.8,4.56-12.58,8.56-25.35,11.98-38.28.49-1.87-2.4-2.67-2.89-.8h0Z"/>
  <path class="cls-1" d="M213.52,36.92c-2.83-4.06-8.59-4.6-13.11-4.4-1.1.05-1.57,1.03-1.42,1.86-.12,0-.24.03-.35.07-4.6,1.9-8.11,5.74-9.58,10.52-.68,2.21-1.09,5.06-.27,7.29.99,2.7,3.84,3.05,6.37,3.1,5.27.1,10.49-1.8,14.52-5.17,3.7-3.08,7.05-8.67,3.84-13.27ZM208.91,46.84c-2.89,2.93-6.82,4.81-10.88,5.36-.95.13-1.91.18-2.87.16-.9-.02-2.05.02-2.88-.38-1.49-.73-.91-3.78-.62-5.07.91-4.16,3.81-7.92,7.78-9.57.75-.31,1.26-.98,1.05-1.82,3.08-.14,6.79-.02,9.38,1.87,3.48,2.56,1.5,6.96-.96,9.45Z"/>
  <path class="cls-1" d="M244.43,58.2c-.12,1.37-.69,2.57-1.67,3.53-.85.83-1.87,1.44-2.9,2.01-1.26.71-2.39-1.24-1.13-1.94,1.61-.91,3.41-1.92,3.47-3.93,0-.17,0-.33-.01-.5-.43.37-.94.64-1.49.76-1.56.35-3.38-.55-3.7-2.21-.33-1.68,1.1-3.34,2.82-3.26.03,0,.06,0,.09.01.08-.08.16-.16.25-.23.67-.5,1.62-.42,2.3-.01.43.25.74.63.92,1.08.23.22.41.49.54.8.24.56.31,1.16.39,1.75.1.71.19,1.42.12,2.14Z"/>
</svg>