<?xml version="1.0" encoding="UTF-8"?>
<svg id="Layer_1" data-name="Layer 1" xmlns="http://www.w3.org/2000/svg" viewBox="0 0 53.95 75.76">
  <defs>
    <style>
      .cls-1 {
        fill: #000;
        stroke-width: 0px;
      }
    </style>
  </defs>
  <g id="RSXnbV">
    <g>
      <path class="cls-1" d="M4.98,20.85c.14,10.23-.98,20.52,1.77,30.63.74,2.71,1.45,5.42,2,8.17.14.69-.43,1.53-.67,2.29-.54-.47-1.27-.84-1.58-1.44-3.03-5.69-4.83-11.84-5.38-18.21C.43,34.35.11,26.35,0,18.37c-.04-2.62.1-5.64,3.21-7.19,1.84-.91,3.73-.7,4.59,1.11,3.35,7.02,6.67,14.05,9.9,21.12,1.41,3.1,1.34,3.11,4.51,2.01,1.82-.63,3.73-1.05,5.62-1.42,1.55-.31,2.38-1.15,2.35-2.69-.12-5.28-.35-10.56-.42-15.84-.05-3.98-.21-7.99.28-11.91.16-1.31,2.01-2.85,3.43-3.41,1.03-.41,3.16.18,3.87,1.07,1.87,2.35,3.47,5,4.75,7.73,2.82,6.04,5.73,12.08,7.95,18.36,2.44,6.88,4.35,13.99,3.82,21.47-.38,5.42-2.64,9.9-7.33,12.65-5.63,3.3-11.34,6.55-17.31,9.14-5.11,2.21-10.61,3.52-15.98,5.1-2,.59-4.2-1.22-4.92-3.73-.69-2.41.18-4.5,2.49-5.19,2.37-.7,4.89-.87,7.24-1.63,6.06-1.95,12.06-4.1,18.09-6.15,4.07-1.38,8.02-2.96,10.66-6.63.56-.78,1.21-1.63,1.36-2.53.72-4.16.88-8.28-.06-12.51-2.48-11.23-7.56-21.49-11.7-32.1-.18-.45-.45-.92-.81-1.23-.46-.39-1.29-1-1.54-.84-.51.32-1.08,1.11-1.04,1.67.4,6.18.92,12.36,1.39,18.54.24,3.12.64,6.24.61,9.36-.04,3.62-3,6.07-7.25,6.7-1.66.25-3.3.8-4.87,1.41-3.73,1.43-7.75,1.69-9.44-2.86-1.91-5.16-4.45-10.1-6.73-15.12-.33-.74-.75-1.44-1.13-2.15-.2.06-.4.12-.59.18Z"/>
      <path class="cls-1" d="M35.25,54.21c-2.33,2.16-3.87.77-5.53-.01-.39.67-.62,1.43-1.14,1.84-.43.34-1.29.52-1.76.32-.46-.2-1.06-1.1-.94-1.49.68-2.22,1.55-4.38,2.36-6.56.29.03.58.06.86.09.32.61,1,1.3.89,1.81-.61,2.6,1.11,2.84,2.89,3.18.66.12,1.28.43,2.38.81Z"/>
      <path class="cls-1" d="M34.56,46.8c-.18-.8-.79-1.98-.48-2.32,1.63-1.78,3.32-3.59,5.32-4.88,1.3-.84,2.55.99,1.97,1.76-1.63,2.14-3.8,3.88-5.75,5.78-.35-.11-.71-.22-1.06-.33Z"/>
      <path class="cls-1" d="M22.11,50.26c-3.07,1.78-7.47,1.35-8.99-.87,3.14-2.04,7.42-1.62,8.99.87Z"/>
    </g>
  </g>
</svg>