<?xml version="1.0" encoding="UTF-8"?>
<svg id="Layer_1" data-name="Layer 1" xmlns="http://www.w3.org/2000/svg" viewBox="0 0 53.95 75.76">
  <defs>
    <style>
      .cls-1 {
        fill: #000;
      }

      .cls-1, .cls-2 {
        stroke-width: 0px;
      }

      .cls-2 {
        fill: #fff;
      }
    </style>
  </defs>
  <path class="cls-1" d="M53.86,48.76c-.38,5.43-2.64,9.9-7.33,12.65-5.63,3.3-11.34,6.55-17.31,9.14-5.11,2.21-10.62,3.52-15.98,5.1-2,.58-4.2-1.22-4.92-3.73C1.91,57.85,1.27,43.79,1.27,43.79h.01c-.06-.49-.12-.99-.16-1.49C.43,34.35.12,26.35,0,18.37c-.04-2.63.09-5.65,3.21-7.19,1.84-.91,3.73-.7,4.59,1.11,3.35,7.01,6.67,14.04,9.89,21.11,1.42,3.1,1.35,3.11,4.51,2.01,1.82-.63,3.73-1.05,5.63-1.42,1.55-.3,2.38-1.15,2.35-2.69-.12-5.28-.35-10.56-.42-15.84-.06-3.98-.21-8,.28-11.92.16-1.31,2.01-2.84,3.43-3.41,1.03-.41,3.16.19,3.86,1.08,1.87,2.35,3.47,5,4.75,7.73,2.82,6.04,5.73,12.08,7.95,18.36,2.44,6.88,4.35,13.99,3.82,21.46Z"/>
  <path class="cls-2" d="M35.25,54.21c-2.33,2.16-3.87.77-5.53-.01-.39.67-.62,1.43-1.14,1.84-.43.34-1.29.52-1.76.32-.46-.2-1.06-1.1-.94-1.49.68-2.22,1.55-4.38,2.36-6.56.29.03.58.06.86.09.32.61,1,1.3.89,1.81-.61,2.6,1.11,2.84,2.89,3.18.66.12,1.28.43,2.38.81Z"/>
  <path class="cls-2" d="M34.56,46.8c-.18-.8-.79-1.98-.48-2.32,1.63-1.78,3.32-3.59,5.32-4.88,1.3-.84,2.55.99,1.97,1.76-1.63,2.14-3.8,3.88-5.75,5.78-.35-.11-.71-.22-1.06-.33Z"/>
  <path class="cls-2" d="M22.11,50.26c-3.07,1.78-7.47,1.35-8.99-.87,3.14-2.04,7.42-1.62,8.99.87Z"/>
</svg>