<?xml version="1.0" encoding="UTF-8"?>
<svg id="Layer_1" data-name="Layer 1" xmlns="http://www.w3.org/2000/svg" viewBox="0 0 13.92 14.54">
  <defs>
    <style>
      .cls-1 {
        fill: #000;
        stroke-width: 0px;
      }
    </style>
  </defs>
  <path class="cls-1" d="M11.96,5.26h-1.52v-.51c0-.59-.38-1.06-.9-1.24h-.01c-.15-.9-.94-1.59-1.88-1.59-.19,0-.35.03-.51.08v-.08c0-1.05-.85-1.92-1.92-1.92s-1.92.86-1.92,1.92v.08c-.16-.05-.33-.08-.51-.08-.94,0-1.73.69-1.88,1.59h-.01c-.53.18-.9.65-.9,1.24v8.48c0,.73.59,1.31,1.3,1.31h7.84c.71,0,1.3-.59,1.3-1.31v.1h1.52c1.09,0,1.97-.93,1.97-2.05v-3.96c0-1.14-.88-2.05-1.97-2.05ZM12.17,11.27c0,.18-.11.3-.21.3h-1.52v-4.56h1.52c.1,0,.21.11.21.3v3.96Z"/>
</svg>